<svg width="32" height="32" viewBox="0 0 32 32" fill="none" xmlns="http://www.w3.org/2000/svg">
  <!-- Background circle -->
  <circle cx="16" cy="16" r="15" fill="#1a237e" stroke="#43a047" stroke-width="2"/>
  
  <!-- Calendar icon -->
  <rect x="8" y="10" width="16" height="12" rx="2" fill="white"/>
  <rect x="8" y="8" width="16" height="4" rx="2" fill="#43a047"/>
  
  <!-- Calendar lines -->
  <line x1="12" y1="12" x2="14" y2="12" stroke="white" stroke-width="1.5" stroke-linecap="round"/>
  <line x1="16" y1="12" x2="18" y2="12" stroke="white" stroke-width="1.5" stroke-linecap="round"/>
  <line x1="20" y1="12" x2="22" y2="12" stroke="white" stroke-width="1.5" stroke-linecap="round"/>
  
  <!-- Event dots -->
  <circle cx="12" cy="18" r="1.5" fill="#43a047"/>
  <circle cx="16" cy="18" r="1.5" fill="#43a047"/>
  <circle cx="20" cy="18" r="1.5" fill="#43a047"/>
  <circle cx="12" cy="22" r="1.5" fill="#1a237e"/>
  <circle cx="16" cy="22" r="1.5" fill="#1a237e"/>
  
  <!-- Sparkle effect -->
  <path d="M6 8l1-1 1 1-1 1-1-1z" fill="#ffd700"/>
  <path d="M26 6l1-1 1 1-1 1-1-1z" fill="#ffd700"/>
  <path d="M24 26l1-1 1 1-1 1-1-1z" fill="#ffd700"/>
</svg> 